<?xml version="1.0" encoding="utf-8"?>
<svg viewBox="881 0 881 130" xmlns="http://www.w3.org/2000/svg">
  <g transform="matrix(1, 0, 0, 1, 246.529457, -382.194012)">
    <path d="M702.68,382.568L718.721,431.938L770.632,431.938L728.635,462.45L744.677,511.82L702.68,481.308L660.683,511.82L676.724,462.45L634.728,431.938L686.639,431.938L702.68,382.568Z" style="fill:rgb(255,216,0);"/>
  </g>
  <g transform="matrix(1, 0, 0, 1, 433.343519, -382.194012)">
    <path d="M702.68,382.568L718.721,431.938L770.632,431.938L728.635,462.45L744.677,511.82L702.68,481.308L660.683,511.82L676.724,462.45L634.728,431.938L686.639,431.938L702.68,382.568Z" style="fill:rgb(255,216,0);"/>
  </g>
  <g transform="matrix(1, 0, 0, 1, 619.296527, -382.194012)">
    <path d="M702.68,382.568L718.721,431.938L770.632,431.938L728.635,462.45L744.677,511.82L702.68,481.308L660.683,511.82L676.724,462.45L634.728,431.938L686.639,431.938L702.68,382.568Z" style="fill:rgb(255,216,0);"/>
  </g>
  <g transform="matrix(1, 0, 0, 1, 805.233728, -382.194012)">
    <path d="M702.68,382.568L718.721,431.938L770.632,431.938L728.635,462.45L744.677,511.82L702.68,481.308L660.683,511.82L676.724,462.45L634.728,431.938L686.639,431.938L702.68,382.568Z" style="fill:rgb(255,216,0);"/>
  </g>
  <g transform="matrix(1, 0, 0, 1, 991.110503, -382.194012)">
    <path d="M702.68,382.568L718.721,431.938L770.632,431.938L728.635,462.45L744.677,511.82L702.68,481.308L660.683,511.82L676.724,462.45L634.728,431.938L686.639,431.938L702.68,382.568Z" style="fill:rgb(255,216,0);"/>
  </g>
</svg>