<?xml version="1.0" standalone="no"?>
<!DOCTYPE svg PUBLIC "-//W3C//DTD SVG 20010904//EN"
 "http://www.w3.org/TR/2001/REC-SVG-20010904/DTD/svg10.dtd">
<svg version="1.0" xmlns="http://www.w3.org/2000/svg"
 width="550.000000px" height="550.000000px" viewBox="0 0 550.000000 550.000000"
 preserveAspectRatio="xMidYMid meet">

<g transform="translate(0.000000,550.000000) scale(0.100000,-0.100000)"
fill="#000000" stroke="none">
<path d="M1090 5485 c-267 -43 -501 -159 -696 -347 -184 -178 -301 -385 -367
-648 -21 -84 -21 -95 -24 -1685 -4 -1780 -6 -1712 63 -1923 129 -393 457 -713
849 -827 194 -56 148 -55 1834 -55 1724 0 1662 -2 1869 66 393 129 713 457
827 849 56 194 55 148 55 1835 0 1687 1 1641 -55 1835 -114 392 -431 718 -825
849 -206 68 -144 66 -1881 65 -1257 -1 -1581 -4 -1649 -14z m3258 -205 c487
-61 871 -447 931 -935 15 -126 15 -3064 0 -3190 -30 -247 -128 -446 -308 -626
-180 -180 -379 -278 -626 -308 -126 -15 -3064 -15 -3190 0 -488 60 -874 444
-935 931 -14 113 -14 3083 0 3196 53 422 357 779 765 897 49 14 119 29 155 34
97 13 3107 13 3208 1z"/>
<path d="M4407 4860 c-110 -28 -218 -124 -257 -228 -18 -47 -21 -73 -18 -147
3 -79 8 -98 38 -153 130 -244 470 -265 624 -39 160 237 6 557 -275 572 -41 2
-91 0 -112 -5z m149 -219 c82 -37 114 -124 75 -205 -29 -58 -73 -86 -137 -86
-144 0 -208 168 -102 267 48 45 100 53 164 24z"/>
<path d="M2525 4145 c-476 -88 -865 -427 -1019 -888 -82 -248 -82 -546 1 -802
128 -398 441 -711 837 -840 156 -50 223 -60 411 -60 188 1 274 14 425 67 353
125 644 402 781 743 76 191 109 412 90 604 -32 319 -156 586 -376 807 -175
176 -374 289 -615 350 -89 22 -132 27 -280 30 -125 2 -198 -1 -255 -11z m500
-229 c412 -107 728 -451 805 -876 17 -93 15 -280 -4 -381 -80 -426 -387 -752
-814 -866 -86 -23 -116 -26 -262 -26 -146 0 -176 3 -262 26 -532 142 -873 620
-827 1158 41 490 407 891 896 984 122 23 341 14 468 -19z"/>
<path d="M2601 3639 c-118 -23 -233 -76 -337 -155 -176 -134 -283 -330 -308
-566 l-6 -58 110 0 110 0 0 41 c0 23 7 69 16 103 59 230 267 408 506 433 l58
6 0 103 0 104 -52 -1 c-29 -1 -73 -5 -97 -10z"/>
</g>
</svg>
