<?xml version="1.0" standalone="no"?>
<!DOCTYPE svg PUBLIC "-//W3C//DTD SVG 20010904//EN"
 "http://www.w3.org/TR/2001/REC-SVG-20010904/DTD/svg10.dtd">
<svg version="1.0" xmlns="http://www.w3.org/2000/svg"
 width="550.000000px" height="550.000000px" viewBox="0 0 550.000000 550.000000"
 preserveAspectRatio="xMidYMid meet">

<g transform="translate(0.000000,550.000000) scale(0.100000,-0.100000)"
fill="#000000" stroke="none">
<path d="M4615 5484 c-83 -30 -119 -88 -113 -178 13 -196 257 -409 526 -462
215 -42 364 48 338 204 -8 54 -60 152 -108 206 -91 104 -249 200 -378 230 -81
19 -212 19 -265 0z"/>
<path d="M4298 5067 c-25 -39 -123 -193 -218 -342 -95 -148 -225 -351 -288
-450 -63 -99 -119 -196 -123 -215 -23 -99 70 -265 204 -366 76 -57 170 -105
262 -133 138 -43 303 -24 362 42 17 19 134 201 559 867 l112 175 -99 7 c-189
13 -387 103 -540 246 -71 67 -169 194 -169 220 0 32 -22 14 -62 -51z"/>
<path d="M3164 4384 c-239 -40 -426 -164 -509 -338 -67 -142 -73 -310 -16
-486 168 -518 761 -992 1416 -1131 94 -20 138 -24 300 -24 220 1 302 17 442
86 411 204 431 704 47 1177 l-43 53 -85 -129 c-68 -103 -94 -135 -138 -164
-85 -58 -145 -73 -283 -73 -146 0 -219 17 -361 86 -270 129 -454 366 -454 584
0 87 19 141 90 251 34 53 60 97 58 99 -2 2 -38 8 -81 14 -104 15 -282 12 -383
-5z"/>
<path d="M2358 3540 c-93 -163 -103 -197 -102 -355 0 -114 4 -141 28 -215 126
-386 464 -740 927 -969 249 -124 484 -187 729 -198 305 -12 527 54 676 203 46
47 191 270 181 280 -2 2 -30 -5 -62 -16 -149 -51 -431 -68 -626 -36 -477 77
-898 293 -1239 636 -229 230 -372 474 -438 750 l-8 34 -66 -114z"/>
<path d="M1505 3381 c-706 -126 -1241 -654 -1382 -1366 -14 -71 -18 -138 -17
-315 0 -195 3 -239 23 -330 137 -637 604 -1138 1221 -1309 569 -158 1185 -3
1621 407 151 143 266 298 358 487 51 103 121 292 121 325 0 75 -87 119 -147
74 -18 -14 -35 -48 -59 -122 -139 -425 -469 -775 -888 -942 -91 -36 -242 -74
-354 -91 -120 -17 -401 -6 -519 20 -531 118 -956 499 -1122 1007 -57 175 -75
289 -75 484 0 185 21 320 75 483 141 424 497 789 914 936 104 37 224 66 310
76 119 13 155 37 155 103 0 24 -9 42 -29 63 -35 35 -59 36 -206 10z"/>
<path d="M2417 1967 c-410 -363 -934 -824 -944 -830 -7 -4 -67 71 -165 204
-163 225 -183 245 -242 228 -41 -11 -66 -44 -66 -84 0 -31 74 -140 325 -480
71 -97 80 -104 126 -105 32 0 54 16 220 163 705 620 940 831 949 847 32 60
-11 130 -80 130 -36 0 -49 -8 -123 -73z"/>
</g>
</svg>
