<?xml version="1.0" standalone="no"?>
<!DOCTYPE svg PUBLIC "-//W3C//DTD SVG 20010904//EN"
 "http://www.w3.org/TR/2001/REC-SVG-20010904/DTD/svg10.dtd">
<svg version="1.0" xmlns="http://www.w3.org/2000/svg"
 width="550.000000px" height="550.000000px" viewBox="0 0 550.000000 550.000000"
 preserveAspectRatio="xMidYMid meet">

<g transform="translate(0.000000,550.000000) scale(0.100000,-0.100000)"
fill="#000000" stroke="none">
<path d="M2245 5053 c-104 -15 -236 -65 -322 -124 -402 -275 -459 -842 -118
-1185 33 -33 85 -77 116 -98 l56 -37 -18 -122 c-24 -161 -24 -180 5 -213 41
-48 67 -40 327 109 130 75 254 140 277 146 40 11 42 11 107 -39 81 -62 140
-92 241 -125 47 -15 164 -75 304 -155 222 -127 258 -142 305 -124 8 4 22 19
30 35 13 25 12 44 -6 175 -19 130 -20 148 -7 155 51 29 143 108 187 161 106
130 168 288 178 453 21 366 -217 692 -578 791 -86 24 -290 25 -373 1 l-60 -16
-40 33 c-174 142 -399 208 -611 179z m269 -199 c203 -50 377 -227 431 -439 19
-76 19 -204 0 -280 -37 -144 -133 -282 -253 -361 -31 -21 -104 -54 -162 -74
-67 -23 -157 -66 -248 -119 -79 -45 -145 -81 -147 -79 -2 2 1 40 6 85 7 58 7
88 -1 102 -6 11 -48 46 -95 76 -195 128 -295 320 -282 541 22 383 375 641 751
548z m797 -174 c177 -55 328 -200 389 -373 61 -172 38 -374 -59 -525 -43 -67
-144 -162 -215 -202 -75 -43 -82 -59 -68 -162 7 -45 10 -83 9 -85 -2 -2 -73
36 -158 84 -85 47 -183 95 -219 106 -63 19 -141 54 -187 84 -22 15 -22 15 27
54 75 59 128 117 181 197 86 131 123 257 122 422 -1 135 -23 230 -77 339 -20
39 -36 73 -36 75 0 22 208 12 291 -14z"/>
<path d="M2075 4403 c-77 -20 -118 -112 -82 -183 17 -34 74 -70 109 -70 49 0
95 28 116 71 18 36 20 38 25 16 4 -12 20 -36 37 -52 27 -26 39 -30 85 -30 46
0 58 4 84 29 17 16 34 38 37 49 5 17 8 16 22 -13 43 -89 170 -93 222 -7 24 39
25 78 4 122 -45 95 -176 93 -225 -3 l-16 -31 -16 34 c-45 93 -179 93 -227 -1
l-16 -30 -14 30 c-25 51 -92 83 -145 69z"/>
<path d="M1082 3146 c-131 -32 -268 -137 -331 -255 -108 -204 -72 -447 91
-610 207 -207 545 -198 742 20 185 205 176 513 -21 708 -131 128 -307 179
-481 137z m266 -191 c261 -120 259 -500 -3 -622 -84 -39 -195 -39 -277 -1 -75
35 -141 98 -175 167 -24 49 -28 68 -28 146 0 106 19 157 86 230 103 111 260
143 397 80z"/>
<path d="M4172 3144 c-91 -24 -164 -66 -233 -134 -208 -204 -210 -521 -5 -726
204 -204 522 -205 724 -2 203 203 204 522 2 726 -126 127 -320 182 -488 136z
m266 -189 c72 -32 142 -102 174 -172 31 -68 31 -208 0 -276 -32 -70 -102 -140
-175 -173 -87 -40 -196 -40 -280 -2 -214 100 -270 381 -108 547 108 111 250
138 389 76z"/>
<path d="M696 2024 c-182 -45 -336 -170 -406 -332 l-25 -57 0 -480 c0 -479 0
-480 22 -522 13 -23 23 -45 23 -48 0 -3 -56 -5 -124 -5 -68 0 -132 -3 -141 -6
-19 -8 -45 -55 -45 -84 0 -12 13 -35 29 -51 l29 -29 2692 0 2692 0 29 29 c16
16 29 39 29 51 0 29 -26 76 -45 84 -9 3 -73 6 -141 6 -68 0 -124 2 -124 5 0 3
10 25 23 48 22 42 22 47 25 504 3 447 2 463 -18 525 -54 161 -192 290 -372
349 -73 24 -73 24 -558 24 l-485 0 -75 -29 c-180 -68 -306 -190 -355 -343
l-17 -53 -194 0 c-180 0 -195 -1 -214 -20 -11 -11 -22 -30 -25 -42 -4 -13 43
-217 110 -486 63 -254 115 -467 115 -472 0 -6 -146 -10 -400 -10 -274 0 -400
3 -400 11 0 5 52 216 115 469 63 252 115 468 115 479 0 12 -11 33 -25 46 -24
25 -25 25 -218 25 l-195 0 -17 53 c-49 154 -171 272 -349 341 l-81 31 -470 2
c-384 2 -481 -1 -529 -13z m1006 -175 c70 -23 127 -60 179 -116 34 -36 79
-103 79 -117 0 -3 -159 -6 -354 -6 -322 0 -356 -2 -375 -17 -16 -14 -36 -81
-91 -303 -39 -157 -75 -302 -81 -322 l-10 -38 -94 0 -95 0 0 141 0 141 -29 29
c-16 16 -39 29 -51 29 -29 0 -76 -26 -84 -45 -3 -9 -6 -106 -6 -215 0 -196 0
-199 24 -227 l24 -28 481 -3 c265 -1 481 -6 481 -11 0 -18 -62 -92 -97 -115
-69 -45 -101 -47 -563 -44 -433 3 -435 3 -488 27 -55 25 -108 76 -117 114 -3
12 -5 216 -3 452 l3 430 27 50 c49 95 155 173 273 201 35 9 177 13 478 13 407
1 431 0 489 -20z m3050 10 c122 -26 235 -106 286 -204 l27 -50 3 -430 c2 -236
0 -440 -3 -452 -9 -38 -62 -89 -117 -114 -53 -24 -55 -24 -488 -27 -462 -3
-494 -1 -563 44 -35 23 -97 97 -97 115 0 5 216 10 481 11 l481 3 24 28 c24 28
24 31 24 227 0 109 -3 206 -6 215 -8 19 -55 45 -84 45 -12 0 -35 -13 -51 -29
l-29 -29 0 -141 0 -141 -95 0 -94 0 -10 38 c-6 20 -42 165 -81 322 -55 222
-75 289 -91 303 -19 15 -53 17 -375 17 -195 0 -354 2 -354 5 0 17 37 73 73
112 55 60 111 97 183 122 56 19 83 20 481 21 273 0 441 -4 475 -11z m-2372
-424 c0 -3 -48 -196 -106 -430 l-106 -425 -179 0 c-99 0 -179 2 -179 4 0 2 12
24 26 50 57 101 70 217 30 263 l-24 28 -307 3 c-284 3 -307 4 -303 20 3 9 31
124 64 255 l59 237 512 0 c282 0 513 -2 513 -5z m1824 -232 c33 -131 61 -246
64 -255 4 -16 -19 -17 -303 -20 l-307 -3 -24 -28 c-40 -46 -27 -162 30 -263
14 -26 26 -48 26 -50 0 -2 -80 -4 -179 -4 l-179 0 -106 425 c-58 234 -106 427
-106 430 0 3 231 5 513 5 l512 0 59 -237z"/>
</g>
</svg>
