<?xml version="1.0" standalone="no"?>
<!DOCTYPE svg PUBLIC "-//W3C//DTD SVG 20010904//EN"
 "http://www.w3.org/TR/2001/REC-SVG-20010904/DTD/svg10.dtd">
<svg version="1.0" xmlns="http://www.w3.org/2000/svg"
 width="550.000000px" height="550.000000px" viewBox="0 0 550.000000 550.000000"
 preserveAspectRatio="xMidYMid meet">

<g transform="translate(0.000000,550.000000) scale(0.100000,-0.100000)"
fill="#000000" stroke="none">
<path d="M4509 4445 c-134 -80 -252 -155 -261 -167 -24 -27 -23 -75 2 -138 11
-28 20 -54 20 -58 0 -4 -54 -34 -120 -67 l-119 -59 -323 97 c-361 108 -443
124 -551 107 -126 -19 -183 -54 -353 -222 l-151 -149 -64 35 c-97 52 -182 77
-289 83 -83 5 -145 -2 -499 -57 -364 -56 -410 -61 -460 -51 -30 6 -57 13 -59
16 -3 2 14 47 36 99 49 109 53 152 18 185 -29 28 -547 211 -597 211 -21 0 -43
-8 -55 -19 -25 -23 -674 -1596 -674 -1632 0 -15 8 -36 18 -47 31 -38 502 -312
534 -312 19 0 40 10 59 30 l30 30 35 -26 c29 -22 33 -30 26 -53 -15 -54 -7
-164 15 -206 27 -51 99 -119 144 -135 l35 -12 -1 -72 c0 -118 57 -210 168
-268 32 -17 60 -22 113 -23 l72 0 22 -43 c52 -97 151 -155 267 -157 l73 0 29
-47 c59 -92 158 -143 268 -136 81 5 128 26 183 81 22 22 42 38 45 35 2 -2 46
-54 98 -116 95 -114 135 -150 196 -170 77 -27 184 -6 265 52 43 30 118 117
128 148 3 9 20 7 68 -6 77 -22 143 -16 221 20 61 28 142 108 160 158 l12 32
56 -19 c190 -64 402 82 419 288 5 64 5 65 39 74 51 14 116 56 153 98 50 56 73
118 79 208 l6 79 380 213 c209 116 385 212 392 212 6 1 23 -30 38 -69 29 -75
62 -110 104 -110 26 0 474 261 519 303 16 15 22 32 22 63 0 30 -85 274 -311
885 -171 464 -319 863 -329 887 -19 41 -48 62 -89 62 -10 0 -128 -65 -262
-145z m511 -873 c154 -419 280 -766 280 -770 0 -10 -289 -187 -294 -180 -6 7
-576 1561 -573 1563 1 1 67 41 147 88 107 64 146 83 152 73 4 -7 133 -355 288
-774z m-3881 414 c7 -5 -588 -1399 -617 -1446 -7 -12 -36 1 -155 73 -81 48
-147 91 -147 94 0 4 129 320 287 704 l287 697 168 -59 c93 -32 172 -61 177
-63z m2540 -115 c184 -56 347 -101 363 -101 16 0 88 29 160 65 72 36 133 64
135 61 14 -14 422 -1140 416 -1147 -21 -20 -806 -449 -812 -444 -3 4 -173 203
-377 443 l-371 437 42 27 c48 30 75 63 75 91 0 47 -50 97 -97 97 -9 0 -165
-83 -347 -184 -191 -106 -357 -191 -391 -201 -42 -13 -77 -16 -122 -12 -71 7
-153 39 -153 59 0 12 869 888 880 888 3 0 23 7 45 15 29 11 65 14 130 11 78
-4 133 -17 424 -105z m-1350 -151 c71 -9 181 -50 181 -67 0 -5 -102 -109 -226
-233 -124 -124 -235 -243 -246 -265 -48 -93 -12 -206 86 -272 64 -43 103 -54
217 -60 153 -8 219 13 470 153 115 63 213 114 218 112 8 -3 747 -868 800 -937
34 -44 36 -116 5 -158 -30 -41 -87 -67 -130 -59 -49 10 -84 44 -260 256 -99
120 -166 192 -184 198 -61 22 -120 -19 -120 -84 0 -25 13 -48 53 -97 182 -224
227 -276 302 -357 55 -59 85 -99 87 -117 13 -110 -90 -199 -185 -159 -25 10
-95 85 -247 263 -117 136 -221 256 -232 266 -50 44 -148 -3 -148 -72 0 -32 33
-77 225 -301 59 -69 114 -140 122 -159 27 -63 -3 -143 -67 -176 -43 -22 -112
-19 -145 6 -15 12 -98 110 -184 218 -87 108 -166 203 -175 211 -43 35 -126 3
-140 -55 -9 -37 5 -61 124 -210 62 -77 118 -152 126 -167 41 -78 -9 -176 -106
-209 -50 -18 -79 3 -189 136 l-101 124 32 58 c29 51 33 67 33 128 -1 83 -27
150 -83 209 -42 43 -123 86 -164 86 -24 0 -28 4 -28 28 0 86 -111 211 -212
239 -49 14 -59 21 -64 42 -15 66 -29 94 -71 141 -58 65 -127 101 -198 103
l-54 2 -17 45 c-52 134 -237 217 -362 160 -48 -22 -129 -95 -193 -175 -24 -30
-46 -55 -50 -55 -3 0 -28 17 -56 38 l-51 38 237 546 c130 301 239 549 242 553
3 3 32 -1 65 -10 91 -24 161 -19 512 36 298 47 421 64 462 67 8 1 48 -3 89 -8z
m-1125 -1204 c43 -18 66 -51 66 -97 0 -31 -14 -52 -106 -160 -130 -153 -137
-159 -184 -159 -31 0 -44 7 -69 35 -31 36 -37 58 -24 91 11 29 212 268 241
286 33 22 34 22 76 4z m342 -234 c29 -23 44 -54 44 -91 0 -25 -31 -67 -175
-235 -189 -221 -204 -232 -264 -201 -46 23 -66 61 -62 117 1 17 303 376 345
410 12 10 37 18 56 18 19 0 45 -8 56 -18z m285 -291 c46 -45 51 -83 17 -127
-53 -69 -223 -271 -245 -291 -17 -16 -36 -23 -65 -23 -55 0 -108 51 -108 104
0 38 1 39 195 265 109 127 140 138 206 72z m273 -271 c40 -35 53 -78 35 -112
-19 -36 -167 -215 -191 -232 -28 -20 -61 -20 -98 -1 -40 21 -60 53 -60 96 0
31 13 51 92 145 50 60 99 114 107 121 29 23 78 15 115 -17z"/>
</g>
</svg>
