<?xml version="1.0" standalone="no"?>
<!DOCTYPE svg PUBLIC "-//W3C//DTD SVG 20010904//EN"
 "http://www.w3.org/TR/2001/REC-SVG-20010904/DTD/svg10.dtd">
<svg version="1.0" xmlns="http://www.w3.org/2000/svg"
 width="2048.000000px" height="2048.000000px" viewBox="0 0 2048.000000 2048.000000"
 preserveAspectRatio="xMidYMid meet">

<g transform="translate(-630.000000,2180.000000) scale(0.133000,-0.133000)"
fill="#000000" stroke="none">
<path d="M15205 16229 c-3397 -160 -6804 -228 -9169 -183 l-329 7 7 -1619 c13
-3256 53 -8188 72 -9101 l6 -293 1020 0 1020 0 -6 73 c-16 182 -25 1721 -16
2567 10 917 27 1834 36 1859 3 11 49 12 262 6 286 -7 2661 10 3347 25 242 5
578 12 746 16 l307 7 63 136 c138 300 371 788 663 1389 170 348 306 635 303
638 -2 3 -197 -2 -433 -11 -1513 -53 -2727 -79 -4331 -91 l-863 -7 0 99 c0 54
5 218 10 364 8 213 60 1771 60 1802 0 4 271 8 603 8 1320 0 3255 48 5302 130
796 32 1138 49 1146 57 11 13 191 471 262 668 132 366 248 751 326 1076 43
181 81 359 81 383 0 19 14 19 -495 -5z m-465 -480 c0 -22 -128 -534 -170 -680
-64 -222 -161 -533 -170 -542 -14 -15 -1791 -82 -3070 -117 -1092 -29 -2437
-50 -3287 -50 l-521 0 -6 -112 c-3 -62 -18 -769 -33 -1572 -23 -1212 -26
-1459 -15 -1464 22 -8 2800 6 3292 17 671 15 1231 30 1623 42 192 6 350 9 353
6 3 -2 -83 -215 -189 -473 -107 -258 -221 -535 -253 -616 l-59 -147 -40 -5
c-47 -6 -911 -23 -1845 -36 -366 -5 -1172 -10 -1791 -10 l-1127 0 -8 -647
c-11 -804 -11 -3059 0 -3520 l8 -342 -614 6 c-337 3 -614 6 -614 7 -3 2 -25
2075 -34 3176 -6 624 -13 2439 -17 4033 l-6 2897 29 -4 c70 -12 1861 -15 2699
-6 1756 19 3751 75 5505 154 157 7 302 14 323 15 22 0 37 -4 37 -10z"/>
<path d="M15126 13123 c-50 -4 -137 -53 -181 -103 l-20 -23 35 6 c105 19 115
18 164 -3 27 -13 51 -30 53 -41 3 -10 14 -19 24 -19 35 0 68 -23 86 -59 22
-44 24 -237 4 -319 -15 -58 -43 -87 -71 -72 -27 14 -30 34 -14 92 16 60 18
186 4 238 -23 86 -34 109 -55 108 -11 0 -36 7 -56 15 -29 13 -48 14 -90 8
-108 -18 -151 -42 -252 -142 -52 -52 -133 -130 -179 -174 -60 -57 -94 -98
-115 -140 -95 -192 -171 -580 -133 -681 9 -23 3 -42 -40 -138 -27 -61 -50
-117 -50 -124 0 -20 -28 -69 -80 -141 -68 -94 -69 -113 -7 -141 32 -15 65 -20
136 -20 l93 0 -6 -32 c-24 -125 -17 -166 33 -193 22 -11 25 -19 22 -56 -2 -37
2 -48 26 -70 15 -15 39 -29 53 -32 24 -6 25 -9 25 -94 0 -109 13 -135 95 -196
95 -72 163 -79 300 -29 30 11 80 23 109 27 l55 7 -65 -73 c-36 -41 -77 -90
-92 -110 -23 -31 -42 -41 -134 -71 -60 -20 -216 -63 -348 -98 -364 -94 -444
-121 -608 -205 -177 -90 -217 -116 -314 -209 -104 -98 -188 -214 -245 -336
-27 -58 -54 -114 -59 -125 -6 -12 -46 -63 -90 -115 -130 -154 -324 -396 -339
-424 -7 -14 -11 -28 -9 -31 3 -2 254 -5 559 -5 l554 -1 88 95 c49 52 99 98
111 102 12 4 33 14 47 24 33 23 87 33 93 17 7 -20 -10 -193 -22 -215 -21 -40
-15 -42 102 -42 61 0 288 -7 502 -15 241 -10 666 -16 1110 -17 621 -2 734 0
820 14 55 9 164 20 243 24 l143 7 23 31 c13 17 51 87 86 156 84 169 152 271
252 377 139 148 303 336 415 476 58 72 158 186 222 252 64 67 172 189 241 272
151 183 386 455 533 617 112 123 219 264 237 310 15 41 12 75 -14 139 -32 78
-66 125 -156 218 -80 84 -133 114 -312 179 -228 84 -295 102 -433 120 -191 25
-273 38 -385 62 -52 12 -124 22 -160 24 -297 14 -577 103 -850 271 -170 104
-360 201 -445 225 -45 14 -101 21 -158 22 l-88 1 -102 -105 c-95 -99 -174
-214 -165 -241 2 -5 37 30 78 77 95 111 120 130 149 115 34 -19 25 -45 -42
-123 -74 -85 -175 -217 -235 -305 -29 -42 -42 -72 -42 -95 l0 -33 50 51 c58
61 71 67 99 48 28 -20 27 -58 -2 -77 -13 -8 -56 -53 -96 -101 -56 -65 -71 -90
-66 -106 7 -23 44 -35 83 -26 84 18 181 49 229 72 30 14 70 28 89 31 30 5 39
1 71 -33 20 -21 45 -58 55 -81 10 -24 47 -70 81 -103 69 -67 85 -71 189 -46
40 9 70 24 97 49 73 66 203 117 298 117 62 0 180 -42 307 -109 191 -101 407
-228 440 -259 17 -17 43 -41 59 -56 31 -29 35 -69 10 -92 -10 -8 -40 -30 -68
-49 -27 -19 -102 -70 -165 -114 -63 -44 -190 -144 -281 -223 -492 -425 -449
-396 -598 -397 -101 -1 -187 21 -308 81 -85 41 -120 52 -213 67 -61 10 -117
24 -125 32 -13 13 -44 263 -34 274 3 2 25 -3 49 -12 53 -18 157 -28 194 -19
30 7 36 43 9 53 -45 16 -45 27 -2 38 52 12 63 39 28 66 l-24 18 28 10 c19 8
27 17 27 35 0 18 6 25 23 28 34 5 33 39 -3 73 -24 23 -30 36 -29 69 1 55 13
94 23 78 4 -6 18 -12 32 -12 21 0 24 4 24 39 0 23 -9 56 -21 76 -19 32 -20 37
-7 48 9 7 18 27 22 46 6 32 2 38 -55 90 -34 31 -74 75 -91 99 -32 46 -47 50
-103 26 -48 -20 -227 -54 -283 -54 -73 0 -132 44 -132 100 0 14 12 45 25 69
14 24 24 44 23 45 -48 19 -67 67 -49 124 6 20 38 73 71 117 l60 80 -25 23
c-16 14 -25 34 -25 53 0 73 150 282 268 373 l60 46 -31 34 c-18 18 -52 47 -77
62 -25 16 -66 45 -90 65 -25 20 -65 48 -90 62 -50 28 -180 79 -180 70 0 -3 23
-39 50 -80 35 -53 50 -85 50 -108 0 -39 -5 -43 -53 -49 l-34 -5 -28 72 c-65
170 -85 225 -95 266 -6 24 -21 53 -34 66 -28 28 -116 61 -198 75 -62 10 -77
10 -172 3z m612 -570 c51 -74 61 -156 21 -168 -27 -9 -37 0 -65 63 -14 31 -32
64 -40 73 -12 14 -13 22 -4 38 16 32 64 28 88 -6z m-520 -85 c27 -27 12 -56
-65 -128 -65 -60 -83 -70 -108 -68 -23 2 -31 9 -33 27 -3 20 13 40 80 102 83
78 104 89 126 67z m-221 -384 c3 -10 1 -31 -6 -48 -35 -91 -20 -276 31 -380
38 -75 33 -109 -14 -104 -27 2 -37 12 -65 58 -38 65 -53 144 -53 285 0 148 21
205 76 205 14 0 27 -7 31 -16z m780 -613 c30 -62 -64 -139 -184 -149 -69 -6
-253 25 -293 49 -59 36 -24 107 37 76 39 -20 196 -41 254 -34 55 7 109 32 109
50 0 41 57 47 77 8z"/>
<path d="M10500 8245 l0 -345 4185 0 4185 0 0 345 0 345 -4185 0 -4185 0 0
-345z"/>
<path d="M10635 7728 c-3 -7 -4 -1498 -3 -3313 l3 -3300 860 0 860 0 5 2189 5
2189 1107 -1112 1106 -1111 109 0 108 0 1110 1110 1110 1110 5 -2187 5 -2188
860 0 860 0 3 3313 2 3312 -773 0 -773 0 -230 -232 c-599 -606 -2043 -2067
-2153 -2181 -69 -70 -128 -127 -132 -127 -8 0 -437 433 -1339 1350 -349 355
-756 768 -904 918 l-270 272 -768 0 c-606 0 -770 -3 -773 -12z m1926 -820
c304 -310 842 -855 1194 -1213 352 -357 705 -717 785 -798 l145 -148 1066
1078 c586 593 1191 1205 1343 1361 l278 282 514 0 514 0 0 -3045 0 -3045 -515
0 -515 0 0 2452 0 2453 -1343 -1343 -1343 -1343 -259 263 c-420 426 -2407
2418 -2411 2418 -2 0 -4 -1103 -4 -2450 l0 -2450 -512 2 -513 3 -3 3043 -2
3042 513 0 514 0 554 -562z"/>
</g>
</svg>
