<?xml version="1.0" standalone="no"?>
<!DOCTYPE svg PUBLIC "-//W3C//DTD SVG 20010904//EN"
 "http://www.w3.org/TR/2001/REC-SVG-20010904/DTD/svg10.dtd">
<svg version="1.0" xmlns="http://www.w3.org/2000/svg"
 width="550.000000pt" height="550.000000px" viewBox="0 0 550.000000 550.000000"
 preserveAspectRatio="xMidYMid meet">

<g transform="translate(0.000000,550.000000) scale(0.100000,-0.100000)"
fill="#000000" stroke="none">
<path d="M2530 5260 c-779 -81 -1431 -491 -1902 -1195 -100 -150 -235 -422
-287 -580 -132 -402 -151 -739 -75 -1310 l37 -280 6 -615 6 -615 27 -51 c15
-28 48 -70 74 -92 162 -143 410 -90 503 108 l26 55 0 620 0 620 -33 67 c-57
116 -159 178 -290 178 -71 0 -154 -30 -198 -71 l-21 -20 -6 68 c-13 130 -7
515 8 643 55 446 215 825 506 1200 91 118 317 351 424 437 961 776 2275 662
3111 -268 345 -383 532 -738 619 -1174 40 -201 46 -292 43 -609 l-3 -299 -32
27 c-89 75 -228 94 -333 45 -70 -33 -126 -89 -159 -159 l-26 -55 0 -625 c0
-617 0 -626 21 -671 76 -164 269 -236 429 -161 68 33 127 92 159 161 20 45 21
60 26 636 l6 590 42 330 c24 182 45 377 49 435 6 117 -9 346 -33 490 -83 500
-337 977 -738 1389 -401 410 -874 654 -1431 737 -121 18 -438 26 -555 14z"/>
<path d="M2700 2740 c-20 -20 -20 -33 -20 -1243 0 -1347 -4 -1267 60 -1267 64
0 60 -93 60 1264 0 1182 -1 1234 -18 1249 -25 23 -58 21 -82 -3z"/>
<path d="M2032 2424 l-22 -15 0 -913 c0 -872 1 -914 18 -929 24 -22 55 -21 75
1 16 17 17 96 17 930 l0 911 -22 15 c-12 9 -27 16 -33 16 -6 0 -21 -7 -33 -16z"/>
<path d="M3420 2433 c-41 -14 -40 -1 -40 -943 0 -866 1 -908 18 -923 25 -23
58 -21 82 3 20 20 20 33 20 920 l0 901 -25 24 c-25 26 -29 27 -55 18z"/>
<path d="M2369 2143 c-12 -13 -14 -127 -14 -650 l0 -635 24 -19 c24 -19 51
-18 79 3 9 8 12 150 12 649 0 566 -2 639 -16 653 -20 21 -68 20 -85 -1z"/>
<path d="M3046 2138 c-14 -20 -16 -98 -16 -648 0 -344 4 -630 8 -636 4 -6 18
-17 31 -24 20 -10 27 -9 50 8 l26 19 3 628 c2 550 0 631 -13 652 -20 31 -68
31 -89 1z"/>
<path d="M1690 1900 c-19 -19 -20 -33 -20 -408 0 -364 1 -390 18 -405 24 -22
65 -21 85 1 15 17 17 59 17 405 0 374 -1 388 -20 407 -11 11 -29 20 -40 20
-11 0 -29 -9 -40 -20z"/>
<path d="M3744 1912 c-31 -21 -34 -54 -34 -419 0 -410 1 -416 60 -421 61 -6
60 -10 60 423 0 367 -1 393 -18 408 -19 18 -49 22 -68 9z"/>
<path d="M1317 1792 c-15 -16 -17 -52 -17 -300 0 -269 1 -283 20 -302 25 -25
41 -25 74 1 l26 20 0 278 c0 234 -2 280 -16 299 -19 27 -64 29 -87 4z"/>
<path d="M4102 1798 c-9 -9 -12 -90 -12 -305 l0 -293 26 -17 c24 -15 29 -15
53 -2 l26 15 3 293 c2 208 -1 298 -9 307 -14 17 -71 18 -87 2z"/>
<path d="M129 1750 c-48 -25 -103 -90 -117 -139 -8 -25 -12 -132 -12 -305 0
-288 2 -303 57 -374 35 -47 126 -88 159 -73 l24 11 0 444 c0 395 -2 445 -16
450 -27 10 -58 6 -95 -14z"/>
<path d="M5290 1763 c-8 -3 -18 -11 -22 -17 -4 -6 -8 -205 -8 -442 0 -481 -3
-462 67 -451 56 10 113 55 145 116 l28 53 0 284 c0 307 -2 319 -55 382 -39 47
-122 87 -155 75z"/>
</g>
</svg>
