<?xml version="1.0" standalone="no"?>
<!DOCTYPE svg PUBLIC "-//W3C//DTD SVG 20010904//EN"
 "http://www.w3.org/TR/2001/REC-SVG-20010904/DTD/svg10.dtd">
<svg version="1.0" xmlns="http://www.w3.org/2000/svg"
 width="550.000000px" height="550.000000px" viewBox="0 0 550.000000 550.000000"
 preserveAspectRatio="xMidYMid meet">

<g transform="translate(0.000000,550.000000) scale(0.100000,-0.100000)"
fill="#000000" stroke="none">
<path d="M2520 5485 c-413 -51 -803 -240 -1098 -533 -580 -577 -725 -1461
-358 -2190 54 -107 1429 -2359 1548 -2534 55 -82 105 -128 139 -128 35 0 79
37 133 114 109 154 1479 2404 1552 2548 190 376 247 811 163 1228 -78 385
-295 764 -589 1027 -407 363 -951 534 -1490 468z m497 -977 c166 -57 294 -147
397 -279 118 -151 177 -318 179 -509 2 -239 -79 -442 -244 -609 -106 -106
-216 -172 -366 -218 -78 -23 -104 -26 -233 -26 -129 0 -155 3 -233 26 -106 33
-182 70 -262 129 -168 124 -278 288 -327 488 -29 117 -28 293 1 404 71 266
268 487 517 582 119 45 177 54 329 51 130 -3 147 -6 242 -39z"/>
</g>
</svg>
