<?xml version="1.0" standalone="no"?>
<!DOCTYPE svg PUBLIC "-//W3C//DTD SVG 20010904//EN"
 "http://www.w3.org/TR/2001/REC-SVG-20010904/DTD/svg10.dtd">
<svg version="1.0" xmlns="http://www.w3.org/2000/svg"
 width="550.000000px" height="550.000000px" viewBox="0 0 550.000000 550.000000"
 preserveAspectRatio="xMidYMid meet">

<g transform="translate(0.000000,550.000000) scale(0.100000,-0.100000)"
fill="#000000" stroke="none">
<path d="M470 4696 c-30 -6 -63 -16 -73 -22 -16 -9 146 -148 1160 -994 648
-541 1185 -984 1193 -984 15 0 2379 1953 2380 1966 0 4 -24 15 -52 25 -50 17
-170 18 -2303 20 -1729 1 -2263 -1 -2305 -11z"/>
<path d="M50 4353 c-51 -113 -50 -77 -50 -1609 0 -1398 0 -1433 20 -1509 55
-215 232 -385 445 -430 105 -22 4465 -22 4570 0 221 46 405 231 450 453 13 63
15 265 12 1525 -2 1319 -4 1456 -19 1498 -17 50 -46 109 -52 109 -2 0 -168
-136 -368 -302 -201 -167 -571 -474 -823 -683 -252 -209 -663 -550 -914 -758
-250 -208 -469 -386 -486 -395 -39 -21 -131 -21 -170 0 -16 9 -605 496 -1307
1082 -703 586 -1280 1066 -1283 1066 -2 0 -14 -21 -25 -47z"/>
</g>
</svg>
