<?xml version="1.0" standalone="no"?>
<!DOCTYPE svg PUBLIC "-//W3C//DTD SVG 20010904//EN"
 "http://www.w3.org/TR/2001/REC-SVG-20010904/DTD/svg10.dtd">
<svg version="1.0" xmlns="http://www.w3.org/2000/svg"
 width="550.000000px" height="550.000000px" viewBox="0 0 550.000000 550.000000"
 preserveAspectRatio="xMidYMid meet">

<g transform="translate(0.000000,550.000000) scale(0.100000,-0.100000)"
fill="#000000" stroke="none">
<path d="M965 5481 c-132 -48 -228 -117 -371 -263 -191 -197 -313 -367 -433
-608 -123 -247 -169 -426 -157 -615 23 -404 343 -1036 857 -1696 458 -589
1025 -1142 1597 -1558 400 -291 765 -504 1074 -625 374 -147 617 -151 953 -17
363 146 830 523 956 774 66 129 73 194 33 295 -48 121 -128 218 -309 373 -369
318 -853 618 -1135 705 -73 22 -186 18 -246 -10 -115 -53 -180 -140 -305 -409
-80 -170 -95 -197 -115 -197 -65 0 -450 240 -678 423 -349 281 -580 530 -829
897 -113 167 -227 375 -227 414 0 18 37 39 229 133 203 99 237 119 291 172
153 150 150 286 -11 611 -159 318 -394 660 -653 950 -206 230 -368 308 -521
251z m234 -428 c221 -221 436 -521 618 -858 92 -170 131 -269 113 -290 -7 -8
-122 -70 -256 -136 -264 -132 -303 -160 -350 -251 -34 -66 -38 -164 -10 -248
55 -166 206 -422 403 -686 312 -416 708 -783 1147 -1061 253 -161 403 -225
526 -227 167 -2 235 73 424 468 40 83 80 157 90 165 14 12 26 10 89 -14 237
-93 626 -339 898 -567 131 -110 279 -262 279 -288 0 -29 -96 -155 -182 -239
-159 -154 -320 -269 -518 -369 -325 -164 -506 -166 -875 -10 -455 193 -1011
571 -1545 1054 -163 147 -498 486 -637 644 -557 635 -990 1348 -1069 1758 -17
89 -18 211 -3 284 25 116 129 339 233 498 143 219 411 487 489 489 11 1 68
-48 136 -116z"/>
</g>
</svg>
