<?xml version="1.0" standalone="no"?>
<!DOCTYPE svg PUBLIC "-//W3C//DTD SVG 20010904//EN"
 "http://www.w3.org/TR/2001/REC-SVG-20010904/DTD/svg10.dtd">
<svg version="1.0" xmlns="http://www.w3.org/2000/svg"
 width="550.000000px" height="550.000000px" viewBox="0 0 550.000000 550.000000"
 preserveAspectRatio="xMidYMid meet">

<g transform="translate(0.000000,550.000000) scale(0.100000,-0.100000)"
fill="#000000" stroke="none">
<path d="M907 5325 c-50 -17 -75 -41 -157 -150 -215 -285 -375 -613 -441 -900
-13 -57 -22 -144 -26 -235 -10 -256 19 -365 181 -683 488 -964 1225 -1857
2006 -2434 391 -288 844 -536 1190 -650 247 -81 520 -94 780 -38 311 67 561
151 715 241 127 75 278 240 313 343 15 43 15 101 1 138 -30 79 -230 302 -519
579 -429 412 -483 452 -620 462 -51 3 -82 0 -114 -12 -39 -15 -50 -27 -99
-109 -90 -150 -176 -265 -272 -363 -110 -111 -185 -164 -236 -164 -197 0 -702
338 -1132 759 -304 297 -528 581 -706 890 -115 201 -138 289 -107 409 27 107
51 139 256 347 251 254 280 291 280 353 0 62 -56 197 -112 271 -23 31 -227
241 -453 467 -368 369 -417 414 -475 442 -58 27 -156 53 -199 52 -9 -1 -33 -7
-54 -15z"/>
</g>
</svg>
