<?xml version="1.0" standalone="no"?>
<!DOCTYPE svg PUBLIC "-//W3C//DTD SVG 20010904//EN"
 "http://www.w3.org/TR/2001/REC-SVG-20010904/DTD/svg10.dtd">
<svg version="1.0" xmlns="http://www.w3.org/2000/svg"
 width="550.000000px" height="550.000000px" viewBox="0 0 550.000000 550.000000"
 preserveAspectRatio="xMidYMid meet">

<g transform="translate(0.000000,550.000000) scale(0.100000,-0.100000)"
fill="#000000" stroke="none">
<path d="M2856 4634 c-9 -8 -16 -26 -16 -38 0 -35 357 -674 380 -681 30 -10
60 4 71 32 9 23 -10 61 -162 337 -95 171 -181 323 -191 339 -22 31 -58 36 -82
11z"/>
<path d="M3670 4630 c-20 -20 -21 -30 -18 -356 3 -319 4 -336 22 -350 25 -18
47 -18 72 0 18 14 19 29 19 356 0 327 -1 342 -19 356 -27 20 -52 18 -76 -6z"/>
<path d="M4488 4633 c-36 -43 -363 -650 -361 -672 2 -40 48 -63 81 -43 20 13
372 653 372 677 0 47 -62 72 -92 38z"/>
<path d="M3576 3700 c-327 -52 -590 -241 -736 -529 l-31 -61 -1192 0 c-1299 0
-1272 1 -1380 -57 -68 -37 -148 -117 -181 -181 -54 -108 -56 -125 -56 -659 0
-322 4 -510 11 -545 26 -124 120 -248 231 -304 58 -29 149 -54 200 -54 l38 0
0 -159 c0 -156 1 -160 25 -190 37 -43 121 -79 238 -102 89 -18 133 -20 337
-17 178 3 252 8 305 21 95 24 175 65 202 106 21 32 23 44 23 187 l0 154 1140
0 1140 0 0 -154 c0 -143 2 -155 23 -187 58 -87 235 -129 541 -129 297 0 444
31 527 109 l39 38 0 161 0 162 38 0 c56 0 148 26 214 62 104 55 191 173 217
296 7 35 11 219 11 545 0 534 -2 551 -56 659 -33 64 -113 144 -181 181 -87 46
-162 57 -420 57 l-233 0 -29 58 c-131 258 -365 444 -646 513 -93 23 -274 32
-359 19z m317 -126 c86 -20 188 -61 265 -106 82 -48 240 -208 291 -295 82
-138 129 -343 116 -497 -50 -580 -622 -944 -1164 -740 -197 74 -372 237 -466
435 -57 121 -77 215 -78 359 -1 236 72 425 227 587 123 130 262 213 423 252
102 25 286 27 386 5z m-1133 -615 c-5 -17 -14 -75 -20 -128 -49 -442 228 -872
655 -1018 463 -158 971 53 1185 492 27 55 59 134 71 175 36 126 37 405 3 495
-5 13 23 15 230 15 212 0 241 -2 290 -20 76 -29 139 -88 178 -168 l33 -67 0
-525 0 -525 -33 -67 c-38 -77 -92 -130 -171 -166 l-56 -27 -2375 0 -2375 0
-57 27 c-79 37 -140 96 -174 171 l-29 62 0 525 0 525 28 60 c35 74 110 147
180 174 51 20 78 20 1249 20 l1197 1 -9 -31z m-1260 -1789 c0 -163 5 -155
-119 -189 -174 -48 -499 -48 -672 0 -124 34 -119 26 -119 189 l0 140 455 0
455 0 0 -140z m3410 0 c0 -163 5 -155 -119 -189 -173 -48 -482 -48 -665 -1
-131 33 -126 26 -126 190 l0 140 455 0 455 0 0 -140z"/>
<path d="M3525 3283 c-400 -140 -526 -633 -239 -942 117 -125 250 -183 424
-183 161 0 279 46 397 156 266 247 232 693 -68 897 -102 69 -176 91 -314 96
-111 3 -126 2 -200 -24z m380 -126 c190 -91 301 -297 266 -495 -69 -388 -537
-529 -806 -241 -236 253 -115 666 225 766 28 8 81 12 142 10 86 -4 104 -8 173
-40z"/>
<path d="M4952 2820 c-74 -18 -137 -85 -154 -164 -24 -114 64 -232 181 -244
150 -14 267 129 220 269 -34 102 -145 164 -247 139z m99 -120 c29 -16 51 -67
44 -100 -4 -16 -21 -41 -38 -56 -61 -51 -147 -6 -147 77 0 70 77 113 141 79z"/>
<path d="M527 2542 c-15 -16 -17 -55 -17 -335 0 -274 2 -318 16 -331 22 -23
71 -20 84 3 6 13 10 137 10 335 0 273 -2 317 -16 330 -21 21 -57 20 -77 -2z"/>
<path d="M969 2543 c-11 -13 -15 -81 -17 -326 -3 -344 -1 -357 58 -357 58 0
60 12 60 350 0 260 -2 309 -16 328 -18 26 -65 30 -85 5z"/>
<path d="M1416 2544 c-14 -13 -16 -57 -16 -330 0 -198 4 -322 10 -335 13 -23
62 -26 84 -3 14 13 16 58 16 333 0 295 -1 319 -18 334 -23 21 -56 22 -76 1z"/>
<path d="M1856 2538 c-14 -19 -16 -68 -16 -328 0 -260 2 -309 16 -328 17 -24
62 -30 82 -10 17 17 17 659 0 676 -20 20 -65 14 -82 -10z"/>
<path d="M2306 2544 c-14 -13 -16 -58 -16 -338 0 -345 0 -346 50 -346 59 0 60
6 60 352 0 292 -1 316 -18 331 -23 21 -56 22 -76 1z"/>
</g>
</svg>
