<?xml version="1.0" standalone="no"?>
<!DOCTYPE svg PUBLIC "-//W3C//DTD SVG 20010904//EN"
 "http://www.w3.org/TR/2001/REC-SVG-20010904/DTD/svg10.dtd">
<svg version="1.0" xmlns="http://www.w3.org/2000/svg"
 width="550.000000px" height="550.000000px" viewBox="0 0 550.000000 550.000000"
 preserveAspectRatio="xMidYMid meet">

<g transform="translate(0.000000,550.000000) scale(0.100000,-0.100000)"
fill="#000000" stroke="none">
<path d="M4227 5426 c-32 -13 -76 -39 -98 -58 -21 -18 -358 -445 -747 -948
-390 -503 -713 -915 -719 -915 -6 0 -171 149 -367 330 -427 395 -434 400 -590
400 -91 0 -107 -3 -160 -29 -76 -37 -140 -101 -174 -174 -24 -50 -27 -69 -27
-162 0 -175 -26 -144 608 -731 389 -360 553 -505 590 -524 149 -72 315 -45
428 72 71 72 1701 2181 1726 2233 91 182 10 412 -175 498 -83 39 -213 43 -295
8z m188 -167 c55 -14 111 -69 126 -123 12 -44 0 -117 -25 -146 -7 -8 -390
-503 -851 -1099 -731 -945 -844 -1086 -879 -1102 -53 -24 -100 -24 -150 1 -40
20 -1042 940 -1078 990 -10 14 -21 46 -24 72 -9 62 23 129 77 165 47 31 127
36 175 10 17 -9 210 -182 429 -384 218 -202 408 -374 422 -381 35 -19 84 -8
115 26 14 15 348 446 744 957 395 512 732 945 749 963 16 18 48 39 70 47 49
17 47 17 100 4z"/>
<path d="M2454 5364 c-335 -45 -676 -193 -936 -405 -342 -280 -570 -658 -665
-1104 -25 -121 -27 -147 -27 -365 -1 -257 7 -305 51 -339 31 -25 63 -27 104
-6 46 24 52 52 39 200 -28 314 33 622 181 915 79 156 174 288 297 413 153 156
295 257 493 351 401 190 848 213 1281 66 64 -22 130 -40 145 -40 39 0 69 24
83 65 9 28 8 40 -5 69 -14 29 -29 40 -89 65 -132 55 -309 100 -476 120 -114
15 -352 12 -476 -5z"/>
<path d="M4355 4095 c-31 -30 -32 -69 -5 -167 48 -177 65 -409 47 -635 -8
-101 -8 -103 16 -127 48 -48 112 -46 149 5 29 39 41 159 35 369 -5 186 -16
269 -58 435 -28 111 -56 145 -119 145 -30 0 -47 -6 -65 -25z"/>
<path d="M1245 2939 c-58 -14 -109 -53 -138 -107 -14 -26 -53 -133 -86 -239
l-61 -191 -238 -4 c-231 -3 -238 -4 -281 -28 -121 -68 -157 -218 -78 -322 18
-23 108 -97 202 -166 94 -68 171 -130 173 -137 2 -7 -26 -105 -62 -216 -43
-131 -66 -219 -66 -249 1 -134 138 -243 267 -211 50 13 66 23 269 171 76 55
144 100 152 100 8 0 88 -54 178 -120 187 -136 202 -145 270 -157 40 -8 77 -29
196 -116 80 -59 149 -114 152 -123 3 -9 -30 -127 -74 -263 -62 -191 -80 -260
-80 -304 0 -138 104 -240 245 -240 79 0 101 12 343 188 110 80 208 145 218
145 11 0 109 -66 219 -146 110 -80 216 -154 235 -164 159 -81 353 40 353 219
0 43 -17 110 -76 291 -42 129 -77 247 -77 261 0 22 23 43 150 135 121 88 160
111 203 119 68 14 73 17 264 157 90 65 169 118 176 118 8 0 86 -52 173 -116
197 -143 223 -157 294 -157 122 0 220 97 220 218 0 30 -24 118 -66 247 -36
110 -64 206 -62 213 2 8 73 64 158 125 85 62 170 127 189 144 114 106 88 283
-54 359 -37 20 -57 22 -276 25 l-237 4 -67 206 c-37 114 -76 222 -88 240 -68
103 -220 125 -321 48 -49 -37 -59 -60 -135 -291 l-66 -200 -235 -5 c-255 -6
-277 -10 -336 -68 -49 -49 -66 -98 -62 -172 5 -98 25 -121 230 -271 98 -71
180 -134 183 -140 4 -5 -5 -45 -20 -89 l-27 -80 -212 0 c-154 0 -217 3 -228
13 -9 6 -53 125 -97 263 -69 213 -86 257 -117 292 -91 107 -240 120 -347 31
-51 -42 -64 -71 -147 -329 -40 -124 -79 -235 -86 -247 -14 -23 -17 -23 -233
-23 l-219 0 -25 82 c-14 45 -24 85 -21 90 3 4 84 65 181 135 102 74 186 143
199 163 72 108 33 260 -82 320 -47 24 -57 25 -283 30 l-235 5 -70 213 c-48
142 -80 224 -99 247 -50 63 -141 93 -222 74z m142 -408 c78 -229 99 -268 166
-304 39 -21 58 -22 282 -27 225 -5 240 -6 240 -23 0 -13 -58 -61 -175 -146
-205 -150 -232 -180 -238 -274 -2 -47 3 -79 21 -134 l25 -71 -48 -50 c-26 -27
-51 -64 -55 -81 -3 -17 -10 -33 -13 -35 -4 -2 -49 27 -101 65 -127 93 -191
109 -277 70 -23 -10 -116 -73 -208 -140 -91 -67 -170 -121 -175 -121 -33 0
-28 32 39 235 71 215 77 245 60 304 -18 65 -60 106 -235 231 -237 170 -240
164 65 170 265 6 280 9 342 78 32 35 46 70 104 249 36 114 68 212 71 216 3 4
12 7 21 5 12 -2 37 -63 89 -217z m2897 -1 c67 -203 73 -217 116 -260 64 -65
90 -70 348 -70 184 0 221 -2 226 -15 7 -20 2 -24 -178 -154 -182 -132 -220
-172 -237 -246 -11 -49 -9 -60 24 -171 20 -66 52 -166 72 -223 26 -79 32 -108
24 -118 -6 -7 -15 -13 -19 -13 -4 0 -87 58 -186 130 -180 130 -217 150 -287
150 -53 0 -96 -20 -197 -95 l-89 -64 -12 36 c-6 20 -32 59 -57 85 l-45 48 22
73 c37 125 22 218 -45 278 -16 14 -102 79 -192 144 -111 80 -162 123 -160 134
3 14 32 17 243 21 252 6 268 8 324 55 44 38 60 72 126 280 31 99 61 188 67
198 24 45 41 13 112 -203z m-1510 -496 c9 -4 45 -99 96 -257 97 -296 107 -316
205 -370 38 -21 53 -22 320 -25 176 -2 284 -7 292 -14 7 -6 13 -23 13 -39 0
-30 0 -30 -313 -258 -148 -108 -176 -145 -184 -244 -5 -57 1 -82 76 -310 45
-136 81 -253 81 -259 0 -19 -32 -48 -52 -48 -11 0 -110 66 -221 147 -241 176
-260 187 -342 187 -80 0 -95 -9 -342 -188 -111 -80 -209 -146 -219 -146 -20 0
-54 28 -54 45 0 6 36 123 81 261 126 389 128 383 -201 624 -196 144 -220 164
-220 189 0 16 6 33 13 39 8 7 116 12 292 14 l280 3 54 30 c29 16 65 44 78 62
21 27 183 486 183 517 0 5 7 18 17 28 16 18 39 23 67 12z"/>
</g>
</svg>
