<?xml version="1.0" standalone="no"?>
<!DOCTYPE svg PUBLIC "-//W3C//DTD SVG 20010904//EN"
 "http://www.w3.org/TR/2001/REC-SVG-20010904/DTD/svg10.dtd">
<svg version="1.0" xmlns="http://www.w3.org/2000/svg"
 width="550.000000px" height="550.000000px" viewBox="0 0 550.000000 550.000000"
 preserveAspectRatio="xMidYMid meet">

<g transform="translate(0.000000,550.000000) scale(0.100000,-0.100000)"
fill="#000000" stroke="none">
<path d="M2681 5474 c-75 -63 -30 -184 69 -184 45 0 78 23 97 67 42 101 -82
188 -166 117z"/>
<path d="M2105 5396 c-311 -104 -542 -246 -778 -476 -351 -341 -557 -768 -608
-1260 -14 -138 -7 -395 16 -530 68 -412 259 -787 556 -1095 l87 -90 -329 -580
c-206 -364 -329 -590 -329 -607 0 -61 45 -108 104 -108 14 0 190 34 391 76
202 42 368 74 369 72 2 -1 61 -167 132 -368 137 -390 151 -417 214 -426 59 -8
87 19 171 167 410 724 643 1129 648 1129 6 0 233 -396 641 -1115 69 -122 92
-154 121 -169 23 -13 44 -17 62 -12 62 15 71 34 208 421 72 204 133 372 134
373 2 2 168 -30 370 -72 201 -42 380 -76 397 -76 42 0 98 56 98 100 0 24 -86
184 -330 613 l-330 582 74 75 c308 314 498 688 573 1125 24 140 24 491 0 630
-40 229 -98 408 -197 605 -242 483 -665 848 -1178 1016 -157 52 -190 54 -232
17 -43 -39 -49 -87 -18 -133 19 -28 36 -39 83 -53 384 -116 690 -312 923 -591
523 -628 570 -1514 117 -2191 -431 -645 -1215 -942 -1978 -750 -190 48 -382
135 -558 254 -430 289 -706 728 -790 1256 -20 121 -17 408 5 540 112 682 592
1245 1236 1450 151 48 162 54 183 98 16 31 17 42 7 72 -15 46 -54 75 -99 75
-20 0 -95 -20 -166 -44z m-250 -3766 c197 -96 388 -155 602 -187 l113 -17 -21
-35 c-12 -20 -147 -258 -301 -529 -155 -271 -282 -491 -284 -490 -2 2 -50 138
-109 303 -115 327 -130 355 -197 355 -17 0 -162 -27 -321 -60 -159 -34 -291
-59 -293 -57 -3 3 452 811 492 874 l14 23 93 -61 c50 -34 146 -87 212 -119z
m2326 -226 c121 -214 234 -413 251 -443 l31 -54 -29 6 c-16 3 -139 29 -274 57
-292 62 -333 67 -367 49 -34 -18 -37 -25 -148 -339 -54 -151 -101 -284 -105
-294 -5 -15 -74 98 -285 470 -153 269 -289 508 -302 531 l-24 41 53 7 c320 39
617 146 873 313 50 33 93 56 98 53 4 -4 106 -182 228 -397z"/>
<path d="M2570 5064 c-254 -32 -502 -125 -725 -272 -133 -87 -337 -290 -424
-422 -122 -183 -205 -379 -253 -596 -30 -137 -32 -450 -4 -599 95 -509 425
-941 891 -1165 449 -215 960 -211 1410 11 160 79 287 171 420 304 295 295 455
661 472 1080 30 775 -503 1459 -1272 1631 -90 20 -144 26 -295 29 -102 2 -201
1 -220 -1z m448 -234 c433 -88 784 -355 980 -746 190 -379 195 -846 12 -1222
-205 -423 -588 -707 -1055 -782 -102 -17 -334 -14 -440 5 -453 80 -831 368
-1026 780 -59 125 -83 196 -108 321 -132 652 217 1307 833 1565 251 104 542
133 804 79z"/>
<path d="M2686 4479 c-18 -14 -74 -116 -161 -289 l-134 -267 -43 -7 c-24 -4
-158 -25 -300 -46 -141 -21 -265 -44 -277 -52 -12 -7 -28 -28 -37 -46 -30 -65
-20 -79 218 -312 l220 -215 -50 -305 c-49 -292 -50 -306 -35 -338 16 -33 62
-62 99 -62 9 0 136 62 282 138 147 75 274 137 282 137 8 0 136 -62 283 -139
295 -152 302 -154 359 -99 38 36 37 52 -19 386 l-46 281 221 218 c149 146 223
225 224 240 3 50 -4 74 -30 100 -26 26 -42 30 -322 73 -162 25 -300 47 -306
49 -5 2 -69 123 -142 269 -84 170 -141 273 -158 286 -35 28 -93 28 -128 0z
m168 -528 c71 -142 107 -203 125 -214 23 -13 80 -23 379 -69 39 -6 72 -13 72
-16 0 -4 -72 -79 -160 -167 -189 -191 -177 -148 -127 -442 18 -106 30 -193 26
-193 -4 0 -90 43 -191 96 -100 52 -197 98 -215 101 -26 4 -57 -7 -165 -62 -73
-37 -161 -83 -195 -102 -35 -19 -67 -33 -71 -31 -5 1 6 89 24 193 51 293 64
249 -131 445 l-165 166 217 32 c149 22 226 38 243 50 16 11 63 93 125 215 55
108 102 197 105 197 3 0 50 -89 104 -199z"/>
</g>
</svg>
