<?xml version="1.0" standalone="no"?>
<!DOCTYPE svg PUBLIC "-//W3C//DTD SVG 20010904//EN"
 "http://www.w3.org/TR/2001/REC-SVG-20010904/DTD/svg10.dtd">
<svg version="1.0" xmlns="http://www.w3.org/2000/svg"
 width="550.000000px" height="550.000000px" viewBox="0 0 550.000000 550.000000"
 preserveAspectRatio="xMidYMid meet">

<g transform="translate(0.000000,550.000000) scale(0.100000,-0.100000)"
fill="#a38f46" stroke="none">
<path d="M2618 5131 c-68 -27 -121 -73 -171 -149 -93 -141 -2388 -4206 -2409
-4267 -47 -134 5 -260 134 -324 l61 -31 2521 0 c2515 0 2521 0 2566 21 56 25
95 62 123 114 29 54 29 161 -1 227 -11 26 -298 532 -638 1125 -339 593 -873
1526 -1187 2073 -313 547 -582 1015 -598 1040 -74 118 -187 190 -294 190 -34
-1 -81 -9 -107 -19z m872 -1706 c403 -704 917 -1601 1141 -1992 l408 -713
-2300 0 c-1265 0 -2298 3 -2296 8 3 4 450 795 994 1757 544 963 1057 1868
1139 2012 l149 262 16 -27 c9 -15 347 -603 749 -1307z"/>
<path d="M2693 3709 c-173 -22 -328 -178 -340 -341 -7 -96 180 -1492 208
-1559 33 -76 107 -129 183 -129 78 0 162 64 190 146 22 65 208 1474 203 1540
-2 28 -17 78 -34 115 -72 154 -243 249 -410 228z"/>
<path d="M2635 1507 c-213 -102 -219 -410 -11 -512 138 -67 305 -7 370 134 30
66 28 179 -3 241 -52 102 -126 151 -236 157 -59 3 -78 0 -120 -20z"/>
</g>
</svg>
